<svg id="wave" style="transform:rotate(0deg); transition: 0.3s" viewBox="0 0 1440 290" version="1.1" xmlns="http://www.w3.org/2000/svg"><defs><linearGradient id="sw-gradient-0" x1="0" x2="0" y1="1" y2="0"><stop stop-color="rgba(24, 39, 105, 1)" offset="0%"></stop><stop stop-color="rgba(4, 121, 201, 1)" offset="100%"></stop></linearGradient></defs><path style="transform:translate(0, 0px); opacity:1" fill="url(#sw-gradient-0)" d="M0,29L60,33.8C120,39,240,48,360,87C480,126,600,193,720,222.3C840,251,960,242,1080,212.7C1200,184,1320,135,1440,130.5C1560,126,1680,164,1800,174C1920,184,2040,164,2160,159.5C2280,155,2400,164,2520,183.7C2640,203,2760,232,2880,236.8C3000,242,3120,222,3240,212.7C3360,203,3480,203,3600,174C3720,145,3840,87,3960,53.2C4080,19,4200,10,4320,14.5C4440,19,4560,39,4680,53.2C4800,68,4920,77,5040,96.7C5160,116,5280,145,5400,140.2C5520,135,5640,97,5760,111.2C5880,126,6000,193,6120,227.2C6240,261,6360,261,6480,256.2C6600,251,6720,242,6840,227.2C6960,213,7080,193,7200,183.7C7320,174,7440,174,7560,183.7C7680,193,7800,213,7920,207.8C8040,203,8160,174,8280,178.8C8400,184,8520,222,8580,241.7L8640,261L8640,290L8580,290C8520,290,8400,290,8280,290C8160,290,8040,290,7920,290C7800,290,7680,290,7560,290C7440,290,7320,290,7200,290C7080,290,6960,290,6840,290C6720,290,6600,290,6480,290C6360,290,6240,290,6120,290C6000,290,5880,290,5760,290C5640,290,5520,290,5400,290C5280,290,5160,290,5040,290C4920,290,4800,290,4680,290C4560,290,4440,290,4320,290C4200,290,4080,290,3960,290C3840,290,3720,290,3600,290C3480,290,3360,290,3240,290C3120,290,3000,290,2880,290C2760,290,2640,290,2520,290C2400,290,2280,290,2160,290C2040,290,1920,290,1800,290C1680,290,1560,290,1440,290C1320,290,1200,290,1080,290C960,290,840,290,720,290C600,290,480,290,360,290C240,290,120,290,60,290L0,290Z"></path></svg>