<?xml version="1.0" standalone="no"?>
<svg xmlns:xlink="http://www.w3.org/1999/xlink" id="wave" style="transform:rotate(0deg); transition: 0.3s" viewBox="0 0 1440 490" version="1.1" xmlns="http://www.w3.org/2000/svg"><defs><linearGradient id="sw-gradient-0" x1="0" x2="0" y1="1" y2="0"><stop stop-color="rgba(250.857, 252.092, 253.079, 1)" offset="0%"/><stop stop-color="rgba(245.563, 250.806, 255, 0.99)" offset="100%"/></linearGradient></defs><path style="transform:translate(0, 0px); opacity:1" fill="url(#sw-gradient-0)" d="M0,49L60,57.2C120,65,240,82,360,147C480,212,600,327,720,375.7C840,425,960,408,1080,359.3C1200,310,1320,229,1440,220.5C1560,212,1680,278,1800,294C1920,310,2040,278,2160,269.5C2280,261,2400,278,2520,310.3C2640,343,2760,392,2880,400.2C3000,408,3120,376,3240,359.3C3360,343,3480,343,3600,294C3720,245,3840,147,3960,89.8C4080,33,4200,16,4320,24.5C4440,33,4560,65,4680,89.8C4800,114,4920,131,5040,163.3C5160,196,5280,245,5400,236.8C5520,229,5640,163,5760,187.8C5880,212,6000,327,6120,383.8C6240,441,6360,441,6480,432.8C6600,425,6720,408,6840,383.8C6960,359,7080,327,7200,310.3C7320,294,7440,294,7560,310.3C7680,327,7800,359,7920,351.2C8040,343,8160,294,8280,302.2C8400,310,8520,376,8580,408.3L8640,441L8640,490L8580,490C8520,490,8400,490,8280,490C8160,490,8040,490,7920,490C7800,490,7680,490,7560,490C7440,490,7320,490,7200,490C7080,490,6960,490,6840,490C6720,490,6600,490,6480,490C6360,490,6240,490,6120,490C6000,490,5880,490,5760,490C5640,490,5520,490,5400,490C5280,490,5160,490,5040,490C4920,490,4800,490,4680,490C4560,490,4440,490,4320,490C4200,490,4080,490,3960,490C3840,490,3720,490,3600,490C3480,490,3360,490,3240,490C3120,490,3000,490,2880,490C2760,490,2640,490,2520,490C2400,490,2280,490,2160,490C2040,490,1920,490,1800,490C1680,490,1560,490,1440,490C1320,490,1200,490,1080,490C960,490,840,490,720,490C600,490,480,490,360,490C240,490,120,490,60,490L0,490Z"/></svg>