<?xml version="1.0" standalone="no"?>
<svg xmlns:xlink="http://www.w3.org/1999/xlink" id="wave" style="transform:rotate(0deg); transition: 0.3s" viewBox="0 0 1440 330" version="1.1" xmlns="http://www.w3.org/2000/svg"><defs><linearGradient id="sw-gradient-0" x1="0" x2="0" y1="1" y2="0"><stop stop-color="rgba(250.857, 252.092, 253.079, 1)" offset="0%"/><stop stop-color="rgba(245.563, 250.806, 255, 0.99)" offset="100%"/></linearGradient></defs><path style="transform:translate(0, 0px); opacity:1" fill="url(#sw-gradient-0)" d="M0,33L60,38.5C120,44,240,55,360,99C480,143,600,220,720,253C840,286,960,275,1080,242C1200,209,1320,154,1440,148.5C1560,143,1680,187,1800,198C1920,209,2040,187,2160,181.5C2280,176,2400,187,2520,209C2640,231,2760,264,2880,269.5C3000,275,3120,253,3240,242C3360,231,3480,231,3600,198C3720,165,3840,99,3960,60.5C4080,22,4200,11,4320,16.5C4440,22,4560,44,4680,60.5C4800,77,4920,88,5040,110C5160,132,5280,165,5400,159.5C5520,154,5640,110,5760,126.5C5880,143,6000,220,6120,258.5C6240,297,6360,297,6480,291.5C6600,286,6720,275,6840,258.5C6960,242,7080,220,7200,209C7320,198,7440,198,7560,209C7680,220,7800,242,7920,236.5C8040,231,8160,198,8280,203.5C8400,209,8520,253,8580,275L8640,297L8640,330L8580,330C8520,330,8400,330,8280,330C8160,330,8040,330,7920,330C7800,330,7680,330,7560,330C7440,330,7320,330,7200,330C7080,330,6960,330,6840,330C6720,330,6600,330,6480,330C6360,330,6240,330,6120,330C6000,330,5880,330,5760,330C5640,330,5520,330,5400,330C5280,330,5160,330,5040,330C4920,330,4800,330,4680,330C4560,330,4440,330,4320,330C4200,330,4080,330,3960,330C3840,330,3720,330,3600,330C3480,330,3360,330,3240,330C3120,330,3000,330,2880,330C2760,330,2640,330,2520,330C2400,330,2280,330,2160,330C2040,330,1920,330,1800,330C1680,330,1560,330,1440,330C1320,330,1200,330,1080,330C960,330,840,330,720,330C600,330,480,330,360,330C240,330,120,330,60,330L0,330Z"/></svg>